<svg width="337" height="190" viewBox="0 0 337 190" fill="none" xmlns="http://www.w3.org/2000/svg">
<g filter="url(#filter0_i_8_13)">
<path d="M29.8182 70H5.06818V0.181816H30.0227C37.0455 0.181816 43.0909 1.57954 48.1591 4.375C53.2273 7.14772 57.125 11.1364 59.8523 16.3409C62.6023 21.5455 63.9773 27.7727 63.9773 35.0227C63.9773 42.2955 62.6023 48.5455 59.8523 53.7727C57.125 59 53.2045 63.0114 48.0909 65.8068C43 68.6023 36.9091 70 29.8182 70ZM19.8295 57.3523H29.2045C33.5682 57.3523 37.2386 56.5795 40.2159 55.0341C43.2159 53.4659 45.4659 51.0455 46.9659 47.7727C48.4886 44.4773 49.25 40.2273 49.25 35.0227C49.25 29.8636 48.4886 25.6477 46.9659 22.375C45.4659 19.1023 43.2273 16.6932 40.25 15.1477C37.2727 13.6023 33.6023 12.8295 29.2386 12.8295H19.8295V57.3523ZM74.6392 70V17.6364H88.7188V26.7727H89.2642C90.2188 23.5227 91.821 21.0682 94.071 19.4091C96.321 17.7273 98.9119 16.8864 101.844 16.8864C102.571 16.8864 103.355 16.9318 104.196 17.0227C105.037 17.1136 105.776 17.2386 106.412 17.3977V30.2841C105.73 30.0795 104.787 29.8977 103.582 29.7386C102.378 29.5795 101.276 29.5 100.276 29.5C98.1392 29.5 96.2301 29.9659 94.5483 30.8977C92.8892 31.8068 91.571 33.0795 90.5938 34.7159C89.6392 36.3523 89.1619 38.2386 89.1619 40.375V70H74.6392ZM127.352 70.9886C124.011 70.9886 121.034 70.4091 118.42 69.25C115.807 68.0682 113.739 66.3295 112.216 64.0341C110.716 61.7159 109.966 58.8295 109.966 55.375C109.966 52.4659 110.5 50.0227 111.568 48.0455C112.636 46.0682 114.091 44.4773 115.932 43.2727C117.773 42.0682 119.864 41.1591 122.205 40.5455C124.568 39.9318 127.045 39.5 129.636 39.25C132.682 38.9318 135.136 38.6364 137 38.3636C138.864 38.0682 140.216 37.6364 141.057 37.0682C141.898 36.5 142.318 35.6591 142.318 34.5455V34.3409C142.318 32.1818 141.636 30.5114 140.273 29.3295C138.932 28.1477 137.023 27.5568 134.545 27.5568C131.932 27.5568 129.852 28.1364 128.307 29.2955C126.761 30.4318 125.739 31.8636 125.239 33.5909L111.807 32.5C112.489 29.3182 113.83 26.5682 115.83 24.25C117.83 21.9091 120.409 20.1136 123.568 18.8636C126.75 17.5909 130.432 16.9545 134.614 16.9545C137.523 16.9545 140.307 17.2955 142.966 17.9773C145.648 18.6591 148.023 19.7159 150.091 21.1477C152.182 22.5795 153.83 24.4205 155.034 26.6705C156.239 28.8977 156.841 31.5682 156.841 34.6818V70H143.068V62.7386H142.659C141.818 64.375 140.693 65.8182 139.284 67.0682C137.875 68.2955 136.182 69.2614 134.205 69.9659C132.227 70.6477 129.943 70.9886 127.352 70.9886ZM131.511 60.9659C133.648 60.9659 135.534 60.5455 137.17 59.7045C138.807 58.8409 140.091 57.6818 141.023 56.2273C141.955 54.7727 142.42 53.125 142.42 51.2841V45.7273C141.966 46.0227 141.341 46.2955 140.545 46.5455C139.773 46.7727 138.898 46.9886 137.92 47.1932C136.943 47.375 135.966 47.5455 134.989 47.7045C134.011 47.8409 133.125 47.9659 132.33 48.0795C130.625 48.3295 129.136 48.7273 127.864 49.2727C126.591 49.8182 125.602 50.5568 124.898 51.4886C124.193 52.3977 123.841 53.5341 123.841 54.8977C123.841 56.875 124.557 58.3864 125.989 59.4318C127.443 60.4545 129.284 60.9659 131.511 60.9659ZM191.699 90.7273C186.994 90.7273 182.96 90.0795 179.597 88.7841C176.256 87.5114 173.597 85.7727 171.619 83.5682C169.642 81.3636 168.358 78.8864 167.767 76.1364L181.199 74.3295C181.608 75.375 182.256 76.3523 183.142 77.2614C184.028 78.1705 185.199 78.8977 186.653 79.4432C188.131 80.0114 189.926 80.2955 192.04 80.2955C195.199 80.2955 197.801 79.5227 199.847 77.9773C201.915 76.4545 202.949 73.8977 202.949 70.3068V60.7273H202.335C201.699 62.1818 200.744 63.5568 199.472 64.8523C198.199 66.1477 196.562 67.2045 194.562 68.0227C192.562 68.8409 190.176 69.25 187.403 69.25C183.472 69.25 179.892 68.3409 176.665 66.5227C173.46 64.6818 170.903 61.875 168.994 58.1023C167.108 54.3068 166.165 49.5114 166.165 43.7159C166.165 37.7841 167.131 32.8295 169.062 28.8523C170.994 24.875 173.563 21.8977 176.767 19.9205C179.994 17.9432 183.528 16.9545 187.369 16.9545C190.301 16.9545 192.756 17.4545 194.733 18.4545C196.71 19.4318 198.301 20.6591 199.506 22.1364C200.733 23.5909 201.676 25.0227 202.335 26.4318H202.881V17.6364H217.301V70.5114C217.301 74.9659 216.21 78.6932 214.028 81.6932C211.847 84.6932 208.824 86.9432 204.96 88.4432C201.119 89.9659 196.699 90.7273 191.699 90.7273ZM192.006 58.3409C194.347 58.3409 196.324 57.7614 197.938 56.6023C199.574 55.4205 200.824 53.7386 201.688 51.5568C202.574 49.3523 203.017 46.7159 203.017 43.6477C203.017 40.5795 202.585 37.9205 201.722 35.6705C200.858 33.3977 199.608 31.6364 197.972 30.3864C196.335 29.1364 194.347 28.5114 192.006 28.5114C189.619 28.5114 187.608 29.1591 185.972 30.4545C184.335 31.7273 183.097 33.5 182.256 35.7727C181.415 38.0455 180.994 40.6705 180.994 43.6477C180.994 46.6705 181.415 49.2841 182.256 51.4886C183.119 53.6705 184.358 55.3636 185.972 56.5682C187.608 57.75 189.619 58.3409 192.006 58.3409ZM252.517 71.0227C247.222 71.0227 242.642 69.8977 238.778 67.6477C234.938 65.375 231.972 62.2159 229.881 58.1705C227.79 54.1023 226.744 49.3864 226.744 44.0227C226.744 38.6136 227.79 33.8864 229.881 29.8409C231.972 25.7727 234.938 22.6136 238.778 20.3636C242.642 18.0909 247.222 16.9545 252.517 16.9545C257.812 16.9545 262.381 18.0909 266.222 20.3636C270.085 22.6136 273.062 25.7727 275.153 29.8409C277.244 33.8864 278.29 38.6136 278.29 44.0227C278.29 49.3864 277.244 54.1023 275.153 58.1705C273.062 62.2159 270.085 65.375 266.222 67.6477C262.381 69.8977 257.812 71.0227 252.517 71.0227ZM252.585 59.7727C254.994 59.7727 257.006 59.0909 258.619 57.7273C260.233 56.3409 261.449 54.4545 262.267 52.0682C263.108 49.6818 263.528 46.9659 263.528 43.9205C263.528 40.875 263.108 38.1591 262.267 35.7727C261.449 33.3864 260.233 31.5 258.619 30.1136C257.006 28.7273 254.994 28.0341 252.585 28.0341C250.153 28.0341 248.108 28.7273 246.449 30.1136C244.813 31.5 243.574 33.3864 242.733 35.7727C241.915 38.1591 241.506 40.875 241.506 43.9205C241.506 46.9659 241.915 49.6818 242.733 52.0682C243.574 54.4545 244.813 56.3409 246.449 57.7273C248.108 59.0909 250.153 59.7727 252.585 59.7727ZM302.256 39.7273V70H287.733V17.6364H301.574V26.875H302.188C303.347 23.8295 305.29 21.4205 308.017 19.6477C310.744 17.8523 314.051 16.9545 317.938 16.9545C321.574 16.9545 324.744 17.75 327.449 19.3409C330.153 20.9318 332.256 23.2045 333.756 26.1591C335.256 29.0909 336.006 32.5909 336.006 36.6591V70H321.483V39.25C321.506 36.0455 320.688 33.5455 319.028 31.75C317.369 29.9318 315.085 29.0227 312.176 29.0227C310.222 29.0227 308.494 29.4432 306.994 30.2841C305.517 31.125 304.358 32.3523 303.517 33.9659C302.699 35.5568 302.278 37.4773 302.256 39.7273ZM20.7841 170L0.806818 100.182H16.9318L28.4886 148.693H29.0682L41.8182 100.182H55.625L68.3409 148.795H68.9545L80.5114 100.182H96.6364L76.6591 170H62.2727L48.9773 124.352H48.4318L35.1705 170H20.7841ZM113.571 170.989C110.23 170.989 107.253 170.409 104.639 169.25C102.026 168.068 99.9574 166.33 98.4347 164.034C96.9347 161.716 96.1847 158.83 96.1847 155.375C96.1847 152.466 96.7188 150.023 97.7869 148.045C98.8551 146.068 100.31 144.477 102.151 143.273C103.991 142.068 106.082 141.159 108.423 140.545C110.787 139.932 113.264 139.5 115.855 139.25C118.901 138.932 121.355 138.636 123.219 138.364C125.082 138.068 126.435 137.636 127.276 137.068C128.116 136.5 128.537 135.659 128.537 134.545V134.341C128.537 132.182 127.855 130.511 126.491 129.33C125.151 128.148 123.241 127.557 120.764 127.557C118.151 127.557 116.071 128.136 114.526 129.295C112.98 130.432 111.957 131.864 111.457 133.591L98.0256 132.5C98.7074 129.318 100.048 126.568 102.048 124.25C104.048 121.909 106.628 120.114 109.787 118.864C112.969 117.591 116.651 116.955 120.832 116.955C123.741 116.955 126.526 117.295 129.185 117.977C131.866 118.659 134.241 119.716 136.31 121.148C138.401 122.58 140.048 124.42 141.253 126.67C142.457 128.898 143.06 131.568 143.06 134.682V170H129.287V162.739H128.878C128.037 164.375 126.912 165.818 125.503 167.068C124.094 168.295 122.401 169.261 120.423 169.966C118.446 170.648 116.162 170.989 113.571 170.989ZM117.73 160.966C119.866 160.966 121.753 160.545 123.389 159.705C125.026 158.841 126.31 157.682 127.241 156.227C128.173 154.773 128.639 153.125 128.639 151.284V145.727C128.185 146.023 127.56 146.295 126.764 146.545C125.991 146.773 125.116 146.989 124.139 147.193C123.162 147.375 122.185 147.545 121.207 147.705C120.23 147.841 119.344 147.966 118.548 148.08C116.844 148.33 115.355 148.727 114.082 149.273C112.81 149.818 111.821 150.557 111.116 151.489C110.412 152.398 110.06 153.534 110.06 154.898C110.06 156.875 110.776 158.386 112.207 159.432C113.662 160.455 115.503 160.966 117.73 160.966ZM161.418 189.636C159.577 189.636 157.849 189.489 156.236 189.193C154.645 188.92 153.327 188.568 152.281 188.136L155.554 177.295C157.259 177.818 158.793 178.102 160.156 178.148C161.543 178.193 162.736 177.875 163.736 177.193C164.759 176.511 165.588 175.352 166.224 173.716L167.077 171.5L148.293 117.636H163.565L174.406 156.091H174.952L185.895 117.636H201.27L180.918 175.659C179.94 178.477 178.611 180.932 176.929 183.023C175.27 185.136 173.168 186.761 170.622 187.898C168.077 189.057 165.009 189.636 161.418 189.636Z" fill="#6E252D"/>
</g>
<defs>
<filter id="filter0_i_8_13" x="0.806641" y="0.181885" width="339.199" height="193.454" filterUnits="userSpaceOnUse" color-interpolation-filters="sRGB">
<feFlood flood-opacity="0" result="BackgroundImageFix"/>
<feBlend mode="normal" in="SourceGraphic" in2="BackgroundImageFix" result="shape"/>
<feColorMatrix in="SourceAlpha" type="matrix" values="0 0 0 0 0 0 0 0 0 0 0 0 0 0 0 0 0 0 127 0" result="hardAlpha"/>
<feOffset dx="10" dy="9"/>
<feGaussianBlur stdDeviation="2"/>
<feComposite in2="hardAlpha" operator="arithmetic" k2="-1" k3="1"/>
<feColorMatrix type="matrix" values="0 0 0 0 0.266667 0 0 0 0 0.27451 0 0 0 0 0.329412 0 0 0 1 0"/>
<feBlend mode="normal" in2="shape" result="effect1_innerShadow_8_13"/>
</filter>
</defs>
</svg>
