<svg width="558" height="673" viewBox="0 0 558 673" fill="none" xmlns="http://www.w3.org/2000/svg">
<g filter="url(#filter0_d_5_1621)">
<path d="M533.685 171.07C531.693 179.217 527.642 182.574 526.635 183.302C526.486 183.409 526.307 183.459 526.124 183.459H522.03C521.727 183.459 521.44 183.321 521.25 183.084L519.647 181.083C519.568 180.985 519.509 180.874 519.472 180.754L518.224 176.72C518.194 176.625 518.179 176.525 518.179 176.425V171.179C518.179 171.107 518.187 171.034 518.203 170.963L519.501 165.112C519.519 165.031 519.547 164.953 519.584 164.879L521.443 161.187C521.514 161.048 521.55 160.894 521.55 160.737V157.96C521.55 157.408 521.103 156.96 520.55 156.96H518.715C518.38 156.96 518.068 157.127 517.883 157.406L513.595 163.843L510.882 168.898C510.804 169.044 510.763 169.206 510.763 169.371V178.193C510.763 178.478 510.885 178.749 511.097 178.939L515.946 183.27C516.084 183.394 516.185 183.553 516.238 183.73L518.179 190.227L521.55 197.798L526.284 206.556C526.363 206.702 526.477 206.826 526.615 206.917L533.435 211.399C533.598 211.506 533.789 211.564 533.984 211.564H537C537.552 211.564 538 212.011 538 212.564V219.93C538 220.086 537.964 220.239 537.894 220.379L533.685 228.771L529.568 235.889C529.526 235.961 529.476 236.028 529.418 236.087L521.619 244.072C521.573 244.119 521.532 244.17 521.497 244.224L518.779 248.386C518.457 248.879 517.781 248.988 517.32 248.622L516.43 247.915C516.253 247.775 516.034 247.698 515.808 247.698H511.43C511.026 247.698 510.662 247.456 510.507 247.083L509.444 244.533C509.339 244.283 509.341 244.002 509.448 243.753L510.722 240.796C510.75 240.733 510.784 240.672 510.823 240.616L512.402 238.378C512.634 238.048 512.646 237.61 512.431 237.269L510.858 234.771C510.795 234.672 510.716 234.584 510.623 234.513L509.346 233.524C509.302 233.491 509.256 233.461 509.207 233.435L505.438 231.409L502.557 229.499C502.006 229.133 501.955 228.342 502.456 227.909L505.438 225.329L508.053 223.534C508.639 223.131 508.63 222.263 508.036 221.873L505.585 220.264C505.487 220.2 505.402 220.119 505.332 220.026L503.411 217.451C503.282 217.278 503.213 217.068 503.213 216.853V215.097C503.213 214.754 503.037 214.435 502.747 214.252L498.805 211.76C498.604 211.633 498.455 211.439 498.384 211.212L497.37 207.952C497.311 207.764 497.31 207.562 497.365 207.373L498.381 203.916C498.453 203.671 498.617 203.462 498.839 203.333L500.493 202.374C501.009 202.075 501.15 201.394 500.796 200.914L498.596 197.937C498.528 197.845 498.477 197.742 498.444 197.632L497.368 194.073C497.311 193.884 497.199 193.716 497.046 193.59L493.329 190.527C493.099 190.337 492.974 190.049 492.882 189.765C492.582 188.836 491.406 187.25 488.246 185.868C485.397 184.621 485.287 184.864 485.829 185.354C486.189 185.68 486.344 186.189 486.14 186.63L484.564 190.027C484.503 190.159 484.471 190.302 484.471 190.448V195.944C484.471 196.033 484.483 196.121 484.506 196.206L486.458 203.405C486.482 203.49 486.493 203.578 486.493 203.667V211.101C486.493 211.395 486.622 211.673 486.845 211.863L489.719 214.308C489.9 214.462 490.129 214.546 490.367 214.546H492.965H496.28C496.832 214.546 497.28 214.994 497.28 215.546V217.184V225.329V233.365C497.28 233.437 497.288 233.509 497.303 233.58L498.444 238.754C498.477 238.903 498.543 239.042 498.638 239.161L504.715 246.791C505.096 247.269 504.963 247.973 504.434 248.28L493.502 254.614C493.173 254.805 492.765 254.793 492.448 254.583L484.471 249.304L471.527 240.701L467.297 237.89C467.241 237.852 467.188 237.809 467.14 237.76L464.497 235.089C463.904 234.491 464.328 233.474 465.171 233.474C465.272 233.474 465.374 233.457 465.47 233.425L471.128 231.542C471.383 231.457 471.593 231.273 471.711 231.031L474.392 225.537C474.458 225.4 474.493 225.25 474.493 225.098V220.167V214.891C474.493 214.668 474.418 214.45 474.28 214.274L469.1 207.663L465.407 201.941C465.352 201.856 465.285 201.78 465.207 201.715L458.448 196.077L453.583 192.385C453.501 192.323 453.41 192.274 453.313 192.24L441.352 187.99C441.244 187.952 441.131 187.933 441.017 187.933H436.47H432.346C431.794 187.933 431.346 187.485 431.346 186.933V186.293C431.346 186.021 431.457 185.761 431.653 185.573L436.293 181.105C436.409 180.994 436.551 180.911 436.705 180.866L444.152 178.681C444.244 178.655 444.339 178.641 444.434 178.641H453.459H457.448C458 178.641 458.448 178.193 458.448 177.641V176.576V169.518C458.448 169.262 458.35 169.016 458.174 168.831L453.459 163.843L448.335 156.96L441.291 149.723C441.223 149.654 441.146 149.595 441.062 149.547L431.47 144.182C431.388 144.136 431.3 144.101 431.208 144.08L416.514 140.671L412.891 139.317C412.113 139.027 412.007 137.97 412.712 137.532L416.514 135.165L421.508 131.461C421.68 131.333 421.889 131.264 422.103 131.264H427.691C427.79 131.264 427.889 131.279 427.983 131.308L436.47 133.903L444.29 136.312L447.799 137.556C448.718 137.881 449.512 136.834 448.95 136.037L448.469 135.355C448.381 135.23 448.265 135.126 448.131 135.053L441.266 131.306C441.215 131.278 441.161 131.255 441.106 131.236L429.829 127.443C429.674 127.391 429.509 127.378 429.348 127.404L419.08 129.084L419.076 129.085C418.998 129.098 402.842 131.867 393.188 135.165C384.876 138.004 380.216 139.84 372.963 144.112C364.753 148.948 356.603 154.704 354.491 158.796C352.537 162.58 348.776 171.925 348.222 173.307C348.175 173.425 348.154 173.543 348.154 173.67V190.227C348.154 195.007 348.657 201.45 352.603 207.663C354.435 210.548 356.256 211.799 358.401 214.546C364.595 222.479 364.591 228.504 371.615 235.997C377.127 241.878 381.662 244.221 388.334 249.304L389.455 250.159C397.433 256.239 402.25 259.911 411.121 265.708C418.526 270.548 422.353 273.709 430.672 277.524C436.353 280.129 445.766 283.117 446.533 283.358C446.57 283.37 446.6 283.382 446.636 283.398L455.797 287.5C456.346 287.746 456.982 287.456 457.14 286.876C457.68 284.888 458.724 280.588 458.583 277.524C458.434 274.3 456.512 272.595 456.83 269.379C457.006 267.6 458.034 265.118 458.429 264.217C458.526 263.993 458.543 263.744 458.49 263.507C458.227 262.343 457.81 259.175 463.032 265.708C468.876 273.019 473.044 280.404 473.507 281.232C473.536 281.285 473.559 281.338 473.578 281.396L479.315 298.648C479.336 298.713 479.351 298.78 479.359 298.847L482.448 325.13V350.17C482.448 350.225 482.444 350.279 482.435 350.332L479.381 368.972C479.359 369.109 479.308 369.24 479.232 369.356L468.426 385.928L456.902 399.494C456.854 399.55 456.8 399.601 456.741 399.645L445.309 408.24C445.259 408.278 445.206 408.311 445.15 408.338L434.043 413.803L420.494 418.71C420.448 418.727 420.402 418.74 420.354 418.75C413.721 420.094 400.194 422.937 398.582 423.668C396.964 424.402 377.413 425.504 367.839 425.963L344.215 427.447C344.144 427.452 344.074 427.463 344.006 427.483L324.672 432.928C324.596 432.949 324.523 432.98 324.454 433.018L305.246 443.799C305.177 443.838 305.112 443.885 305.054 443.94L296.753 451.675C296.682 451.74 296.622 451.815 296.573 451.897L285.5 470.625C285.471 470.675 285.445 470.728 285.425 470.783L277.663 491.505C277.644 491.554 277.63 491.604 277.62 491.655L274.15 508.571C274.136 508.637 274.13 508.705 274.13 508.772V525.079C274.13 525.153 274.137 525.221 274.153 525.293C274.409 526.415 276.732 536.422 279.658 542.626L279.906 543.151C282.719 549.12 284.435 552.763 289.366 557.997C292.872 561.719 295.409 563.469 299.748 566.601C304.991 570.385 314.048 575.303 314.68 575.644C314.705 575.658 314.726 575.67 314.75 575.686C315.438 576.135 326.173 583.111 334.131 586.332C344.303 590.448 350.728 591.993 362.041 593.329C372.612 594.577 378.772 594.126 389.413 593.329C397.331 592.736 404.185 593.871 409.503 590.691L423.121 582.546L437.268 575.734C437.364 575.688 437.45 575.629 437.526 575.555C438.322 574.781 443.164 570.04 445.773 566.601C448.717 562.722 450.531 560.015 452.111 556.162L456.125 546.372C456.145 546.322 456.161 546.272 456.174 546.22C456.359 545.431 457.938 538.767 459.392 534.481C461.082 529.499 464.168 523.123 466.488 518.6C467.009 517.583 465.514 516.39 464.625 517.107C459.936 520.888 452.579 526.186 445.773 528.401C431.373 533.09 421.155 530.768 405.863 528.401C386.595 525.42 362.726 511.923 354.535 507.018C353.677 506.504 354.038 505.23 355.038 505.23H405.42C405.46 505.23 405.472 505.228 405.512 505.223C406.408 505.114 418.348 503.628 425.667 501.368C433.772 498.865 437.962 496.592 445.234 492.627C449.936 490.063 452.535 488.543 456.83 485.499C463.711 480.621 467.584 477.671 472.739 471.418C476.024 467.432 479.882 460.633 480.142 460.172C480.152 460.154 480.16 460.141 480.171 460.124C480.43 459.72 484 454.138 485.684 450.282C485.986 449.59 486.106 449.416 486.124 449.511C486.62 447.763 487.549 444.597 489.19 439.155C495.797 417.241 492.529 429.487 495.797 443.858C498.82 457.155 501.443 462.737 501.818 463.497C501.85 463.561 501.872 463.614 501.89 463.682C502.215 464.881 505.512 477.269 505.37 485.499C505.236 493.313 503.444 493.806 501.864 505.229L497.819 534.481C496.24 545.899 492.672 546.536 489.195 554.2C489.192 554.208 489.192 554.208 489.188 554.216C489.083 554.465 484.093 566.243 480.156 573.484C476.463 580.275 469.775 590.286 469.512 590.679C469.504 590.69 469.5 590.696 469.492 590.707L469.491 590.709C461.754 601.202 456.668 606.966 445.793 615.568L445.792 615.569C445.78 615.579 445.774 615.583 445.761 615.593C445.344 615.89 434.634 623.522 427.193 627.957C427.175 627.967 427.164 627.974 427.147 627.986C426.602 628.357 414.911 636.288 405.863 639.214C396.386 642.28 380.147 642.981 379.714 643C379.703 643 379.699 643 379.692 643H379.684H360.019C352.331 643 345.945 641.266 337.232 639.214C329.178 637.318 324.751 635.944 317.142 633.135C305.645 628.89 299.703 625.633 289.368 619.829L289.366 619.828C289.323 619.804 273.941 611.256 265.635 604.456C259.544 599.47 256.541 596.343 251.477 590.691C245.743 584.291 242.585 580.586 238.399 573.484C234.961 567.652 231.259 558.015 231.252 557.997L231.252 557.997L225.32 542.627L225.32 542.626C225.312 542.607 222.797 536.045 221.679 528.401C220.635 521.262 221.538 510.277 221.665 508.83C221.674 508.722 221.667 508.62 221.642 508.514C221.3 507.047 218.673 495.614 218.173 488.022C217.832 482.833 218.498 479.906 218.173 474.716C217.743 467.825 216.064 464.055 215.612 457.165C215.264 451.88 215.563 443.823 215.607 442.722C215.61 442.636 215.602 442.553 215.583 442.469L210.092 417.626C210.086 417.601 210.082 417.579 210.078 417.554C209.968 416.774 208.022 403.009 207.117 394.072C206.186 384.873 204.777 376.818 205.095 365.738C205.321 357.831 204.696 353.225 207.117 345.549C209.13 339.163 214.998 330.085 215.567 329.213C215.599 329.163 215.623 329.118 215.646 329.064C215.978 328.288 218.612 322.107 220.196 318.017C220.893 316.217 221.81 313.729 222.337 312.29C222.555 311.694 223.262 311.451 223.794 311.798C225.663 313.018 229.609 315.707 231.792 318.017C235.429 321.868 234.945 325.192 238.399 329.145C241.823 333.064 259.266 342.405 259.564 342.564L259.569 342.567C259.569 342.567 259.569 342.567 259.574 342.57C259.863 342.736 270.101 348.592 277.77 350.252C287.06 352.263 292.809 350.252 302.445 350.252C309.553 350.252 313.574 350.806 320.647 350.252C330.342 349.493 344.807 345.685 345.309 345.552C345.323 345.548 345.328 345.547 345.34 345.543L345.346 345.541L361.238 340.471C361.411 340.416 361.562 340.318 361.68 340.181C362.653 339.043 367.33 333.419 368.513 329.145C369.689 324.899 369.704 322.261 368.513 318.017C367.185 313.282 364.484 311.135 361.502 306.89C357.592 301.325 355.938 297.791 350.446 293.125C346.58 289.84 343.483 288.779 339.254 285.783C333.9 281.989 326.274 275.646 325.674 275.146C325.646 275.123 325.623 275.101 325.598 275.075L316.602 265.708C313.074 262.035 304.782 253.013 302.445 249.304C300.188 245.722 295.75 238.273 295.45 236.197C295.43 236.065 295.409 235.94 295.357 235.817C294.792 234.483 291.225 226.1 289.366 222.691C287.343 218.982 283.6 215.883 277.77 214.546C273.979 213.676 271.368 213.483 267.658 214.546C263.696 215.681 262.684 217.934 259.568 220.167C256.795 222.154 254.536 222.824 252.556 225.329C248.527 230.428 252.556 234.698 252.556 240.701C252.556 244.912 251.741 247.322 252.556 251.484C252.998 253.74 254.13 256.355 255.359 258.723C255.903 259.77 254.293 261.135 253.402 260.362L252.556 259.628L245.561 251.657C245.462 251.543 245.389 251.408 245.349 251.262L242.444 240.701L238.399 225.329L234.391 211.69C234.366 211.606 234.353 211.523 234.35 211.436C234.312 210.321 233.967 202.188 231.792 199.519C229.585 196.81 224.932 191.012 223.059 188.366C222.867 188.096 222.559 187.933 222.228 187.933H215.707C215.644 187.933 215.584 187.938 215.522 187.951C214.781 188.1 209.656 189.178 207.117 190.915C202.359 194.172 202.96 198.059 201.993 202.96C201.111 207.431 201.993 210.021 201.993 214.546V220.167C201.993 227.708 201.993 225.329 198.488 222.691C195.538 220.471 193.639 217.764 193.11 216.961C193.009 216.808 192.959 216.63 192.959 216.447V207.319C192.959 204.632 192.429 202.163 192.959 199.519C193.458 197.031 197.911 191.61 198.437 190.976C198.471 190.935 198.501 190.893 198.528 190.846C202.195 184.657 206.65 174.856 207.083 173.899C207.108 173.844 207.124 173.793 207.139 173.735L210.069 161.835C210.079 161.797 210.085 161.764 210.09 161.726C210.167 161.033 210.897 153.66 207.117 150.651C204.575 148.628 202.216 148.211 198.742 147.599L198.488 147.554C195.084 146.952 189.803 147.413 188.617 147.529C188.456 147.545 188.305 147.601 188.171 147.691L178.802 153.978L165.292 161.716C165.22 161.757 165.154 161.806 165.095 161.864C164.237 162.695 157.375 169.352 153.049 173.823C146.81 180.27 137.683 190.603 137.414 190.908C137.405 190.918 137.41 190.913 137.401 190.922L121.767 207.319C115.961 213.408 113.883 224.194 113.692 225.246C113.681 225.306 113.666 225.358 113.645 225.416L107.267 242.713C107.226 242.824 107.205 242.941 107.205 243.059V268.232V293.125C107.205 302.846 106.283 308.323 107.205 318.017C107.96 325.953 107.899 330.562 110.711 338.207C113.584 346.021 117.305 349.796 121.767 357.135C127.628 366.772 131.427 371.977 137.408 381.569C145.096 393.898 150.013 400.612 156.554 413.344C162.798 425.498 166.029 432.451 170.307 445.12L170.433 445.491C174.203 456.655 176.385 463.114 177.858 474.716C179.364 486.573 179.39 493.374 177.858 505.229C176.36 516.826 175.697 523.622 170.307 534.481C166.244 542.667 163.711 547.463 156.554 554.212C151.775 558.719 148.123 560.535 142.531 564.421C137.311 568.05 135.447 571.58 128.913 573.484C122.706 575.292 112.275 573.733 110.869 573.509C110.761 573.492 110.661 573.457 110.565 573.405L101.663 568.605C101.339 568.43 101.137 568.092 101.137 567.725V562.137C101.137 561.569 101.61 561.113 102.178 561.129C103.524 561.166 105.898 561.206 107.609 561.095C112.898 560.75 120.512 558.394 121.628 558.042C121.724 558.011 121.809 557.968 121.891 557.911L133.283 549.909C133.336 549.872 133.392 549.84 133.452 549.812C134.316 549.414 141.325 546.055 146.981 539.529C152.224 533.479 152.937 529.546 153.033 528.615C153.048 528.473 153.079 528.335 153.139 528.205L160.148 513.016C160.179 512.949 160.203 512.879 160.218 512.807L163.678 496.73C163.693 496.661 163.7 496.59 163.7 496.52V479.116C163.7 479.088 163.699 479.062 163.697 479.035C163.629 478.224 162.52 465.312 160.195 457.165C158.143 449.976 155.996 446.148 153.049 439.155C150.772 433.754 149.756 430.644 146.981 425.389C142.628 417.147 139.15 412.877 133.363 405.199C129.084 399.523 126.387 396.483 121.767 390.975C117.526 385.918 115.125 383.093 110.711 378.127C105.875 372.688 102.596 369.946 98.0362 364.362C92.283 357.316 89.8162 352.999 84.9573 345.549C80.826 339.214 77.9063 335.844 74.8448 329.145C72.5294 324.078 71.6443 321.111 70.2604 315.838C67.9684 307.105 68.4176 301.997 67.2941 293.125C65.6385 280.049 62.3716 272.75 63.249 259.628C63.7825 251.65 66.9094 239.634 67.2618 238.299C67.2841 238.214 67.2943 238.136 67.2982 238.049C67.3314 237.315 67.6268 233.01 70.2604 214.546C70.7957 210.794 71.287 208.018 71.7329 205.989C69.2455 208.428 65.77 211.877 63.249 214.546C58.2711 219.816 51.1348 228.266 50.7277 228.749C50.7145 228.765 50.7032 228.779 50.691 228.795C47.3503 233.29 44.9276 235.92 43.0239 240.701C41.1167 245.491 39.7588 250.163 37.4957 256.187C34.818 263.315 30.3281 274.188 29.9681 275.059C29.9509 275.1 29.9391 275.137 29.9276 275.181L26.4393 288.421L22.4349 302.049C22.408 302.141 22.3943 302.234 22.3943 302.33V318.017C22.3943 318.62 25.1492 339.195 25.3522 339.763C25.6607 340.626 26.0211 341.558 26.4393 342.566C32.4858 357.135 32.1134 354.212 37.4957 360.92C41.9698 366.496 46.5759 368.491 50.7095 374.227C51.8327 375.786 53.1045 377.922 53.9999 379.488C54.4398 380.258 53.729 381.133 52.8875 380.855C50.9059 380.2 48.0538 379.175 46.1251 378.127C42.3611 376.083 37.9346 371.685 37.5263 371.275C37.5037 371.253 37.4873 371.237 37.4628 371.217C36.9335 370.773 30.1446 365.061 26.4393 360.92C23.5951 357.741 22.1924 355.846 19.8325 352.431C16.7365 347.951 12.9324 340.602 12.8235 340.391C12.82 340.385 12.8194 340.383 12.8161 340.376C10.7199 336.078 10.197 333.486 8.23672 329.145C6.25155 324.748 4.28734 322.514 2.70853 318.017C0.253121 311.024 0.573089 306.796 0.146677 299.549C-0.169272 294.179 0.146677 291.159 0.146677 285.783C0.146677 280.766 -0.183346 277.946 0.146677 272.935C0.579985 266.356 1.05628 262.645 2.70853 256.187C4.237 250.212 8.00323 241.254 8.22636 240.725C8.23359 240.708 8.24083 240.692 8.24902 240.676L15.7874 225.329L26.4295 207.336C26.4361 207.325 26.4382 207.321 26.4452 207.31C26.6648 206.97 33.0278 197.113 37.4957 190.915C42.3945 184.12 45.1222 180.282 50.7095 173.823C60.1765 162.879 66.8686 157.52 77.946 147.554C86.9311 139.47 91.4942 134.517 101.677 127.364C111.369 120.556 128.311 111.843 128.898 111.542C128.916 111.532 128.923 111.528 128.941 111.517C137.457 106.456 142.201 103.572 150.622 98.399C159.896 92.7015 164.068 88.3442 174.218 83.6583C179.568 81.1879 187.178 78.7437 192.662 77.117C193.36 76.91 193.144 75.7825 192.42 75.8578C181.137 77.0323 174.126 78.235 163.7 79.7581L137.003 83.6583C124.555 85.9445 113.129 88.6105 105.587 90.8853C98.0447 93.16 85.682 94.22 73.9009 98.399C62.5269 102.434 55.9654 104.994 46.6644 111.534C41.6066 115.09 34.9973 121.516 34.553 121.949C34.5362 121.966 34.5233 121.979 34.5077 121.997C34.1112 122.444 28.3913 128.902 26.4393 131.264C25.103 132.881 22.6481 134.565 21.1363 135.521C20.5276 135.907 19.7558 135.511 19.7106 134.792C19.6136 133.249 19.5375 130.845 19.8325 129.085C20.7317 123.719 22.7975 120.829 26.4393 116.237C31.809 109.465 45.1605 102.447 46.5475 101.729C46.6307 101.686 46.6961 101.639 46.7652 101.575C47.6907 100.729 55.037 94.1462 70.7998 83.6583C87.7115 72.406 110.58 67.2301 137.003 58.3067C153.459 52.7494 179.611 45.079 179.878 45.0006C179.887 44.9982 179.885 44.9987 179.893 44.996L208.061 35.9377L253.726 28.0869C254.853 27.8932 263.854 25.0916 264.97 24.8434C269.639 23.8052 278.146 22.2921 293.411 20.1072C322.04 16.0096 329.349 17.6547 331.16 19.0063C331.69 19.402 332.307 20.1918 332.963 20.2797C342.559 21.5666 404.85 29.4246 444.29 22.1721C457.799 19.6881 465.31 17.8452 478.134 13.6833C487.215 10.7359 492.204 8.83983 500.786 5.0798C503.828 3.74688 507.794 1.84306 510.502 0.522383C511.402 0.083347 512.278 1.05868 511.708 1.88267C510.133 4.16264 507.775 7.2903 505.438 9.32419C500.484 13.6354 496.134 14.6881 489.999 17.9277C481.303 22.5198 469.714 27.7686 467.212 29.0549C464.71 30.3411 453.179 34.3677 448.335 35.9377C443.492 37.5076 435.766 42.8204 421.503 42.8204H405.883C405.869 42.8204 405.855 42.8207 405.842 42.8213C386.722 43.6066 381.466 42.9476 380.741 42.8359C380.677 42.826 380.617 42.8205 380.552 42.8207C370.006 42.8568 355.576 44.8482 354.549 44.9918C354.507 44.9977 354.47 45.0057 354.429 45.017L331.287 51.3902C331.206 51.4126 331.132 51.4429 331.059 51.4851C330.119 52.0283 322.865 56.2505 306.49 66.4514L283.861 79.7444C283.845 79.7535 283.834 79.7599 283.818 79.7683C283.319 80.027 273.398 85.1781 267.658 89.1646C264.352 91.46 262.39 92.6952 259.568 95.3591C256.349 98.3961 254.603 100.238 252.556 103.848C248.934 110.236 249.13 114.65 249.435 121.533L249.455 121.973C249.706 127.649 250.263 130.925 252.556 136.312C254.53 140.948 255.83 143.645 259.568 147.554C262.266 150.376 264.031 151.895 267.658 153.978C272.367 156.682 275.45 159.001 281.276 158.796C286.58 158.609 289.468 156.773 293.411 153.978C296.362 151.885 297.66 150.332 299.478 147.554C300.807 145.523 301.918 142.305 302.301 141.124C302.395 140.837 302.346 140.526 302.176 140.276L299.489 136.327C299.482 136.317 299.475 136.308 299.468 136.298C299.237 135.981 295.222 130.456 294.435 126.486C293.941 123.99 294.336 120.166 294.421 119.423C294.43 119.338 294.452 119.255 294.484 119.175L296.793 113.441L298.358 110.055C298.746 109.217 299.967 109.308 300.226 110.195L301.433 114.334C301.461 114.43 301.503 114.521 301.558 114.604L303.223 117.131C303.273 117.207 303.333 117.276 303.401 117.335L306.258 119.821C306.409 119.952 306.596 120.035 306.795 120.059L311.532 120.63H317.833C317.885 120.63 317.938 120.626 317.99 120.618L326.225 119.303C326.256 119.298 326.282 119.293 326.312 119.285C326.956 119.112 335.06 116.828 336.288 111.534C336.636 110.035 336.735 109.116 336.288 107.633C335.866 106.231 334.274 104.439 333.837 103.967C333.764 103.887 333.703 103.798 333.656 103.699L331.259 98.6011C331.197 98.468 331.164 98.3188 331.165 98.1717C331.168 93.367 331.304 93.7362 332.809 88.314C334.218 83.2323 335.99 80.2429 336.254 79.8122C336.278 79.7746 336.297 79.7385 336.316 79.6986C336.598 79.1026 338.96 74.1723 341.277 71.2693C342.17 70.1502 343.508 68.7663 344.509 67.7693C345.077 67.2026 346.009 67.5256 346.079 68.3253C346.231 70.086 346.333 72.7975 345.861 75.1696C345.086 79.0698 344.43 80.5401 345.861 83.6583C347.533 87.2995 349.951 89.3857 354.491 90.8853C358.811 92.3125 362.065 92.5075 370.239 92.2177C378.413 91.9278 375.103 91.8947 381.993 91.6C387.641 91.3584 391.84 88.1047 391.84 83.6583C391.84 75.1696 391.227 78.4495 391.84 75.1696C392.676 70.6945 395.616 64.052 396.607 62.5699C398.75 59.3628 399.524 58.501 403.435 56.586C404.68 55.9766 406.459 55.5568 407.977 55.2845C408.927 55.1141 409.433 56.2419 408.711 56.882L408.248 57.2926C408.218 57.3189 408.188 57.343 408.156 57.3669C407.709 57.7063 404.276 60.5378 405.863 66.4514C407.557 72.7708 408.985 72.1844 410.986 75.8578L416.291 83.3428C416.434 83.5456 416.649 83.688 416.893 83.7346C418.207 83.9855 422.632 84.711 425.144 83.6583C429.169 81.9717 426.151 84.5822 429.593 75.1696C429.866 74.4243 430.111 73.7423 430.332 73.1184L437.683 62.0923L444.29 51.4239C446.87 47.2577 448.774 50.1359 448.335 51.4239C448 52.4081 448.177 53.3037 448.279 53.6716C448.312 53.7902 448.335 53.9116 448.335 54.0347V58.3067V66.4514V75.7698C448.335 75.8306 448.34 75.8848 448.352 75.9445C448.48 76.6124 449.359 80.9864 450.762 83.6583C452.372 86.7222 453.652 88.388 456.425 90.8853C457.802 92.1248 459.969 93.5529 461.411 94.4556C462.065 94.8649 462.897 94.3909 462.897 93.6194V89.3892C462.897 89.2413 462.865 89.0952 462.801 88.9616L458.544 79.9611C458.481 79.8274 458.448 79.6814 458.448 79.5335V75.2666C458.448 75.2021 458.457 75.1354 458.507 75.0945C458.7 74.9371 459.511 74.6294 462.897 75.1696C467.212 75.8579 466.715 75.8578 471.527 79.7581C476.339 83.6584 475.81 87.5116 478.134 92.606C479.348 95.269 481.533 102.981 481.674 103.483C481.679 103.501 481.684 103.518 481.688 103.536L483.476 111.582C483.495 111.668 483.502 111.756 483.498 111.844L482.761 128.13C482.737 128.664 482.297 129.085 481.762 129.085H478.491C478.26 129.085 478.036 129.005 477.857 128.858L474.493 126.102L468.709 121.272C468.115 120.776 467.212 121.199 467.212 121.973V131.264V143.115C467.212 143.243 467.237 143.37 467.285 143.49L471.42 153.713C471.49 153.886 471.607 154.036 471.757 154.146L475.644 156.98C476.427 157.551 477.483 156.786 477.184 155.864L474.542 147.704C474.509 147.604 474.493 147.5 474.493 147.396V135.345C474.493 134.647 475.189 134.16 475.851 134.381C479.41 135.566 485.369 137.077 489.239 136.466C489.691 136.395 489.999 135.992 489.999 135.535V121.973V107.823C489.999 107.698 489.975 107.573 489.929 107.457L482.718 89.1646L478.165 75.2645C478.144 75.2014 478.117 75.1405 478.084 75.0827L468.346 57.8982C467.915 57.1377 468.59 56.2383 469.436 56.4591C473.594 57.5444 482.182 59.9707 482.776 61.6381C483.818 62.0343 485.98 64.1568 489.955 71.1914C489.983 71.2411 490.011 71.2844 490.047 71.3289C490.753 72.2059 499.038 82.6314 502.715 93.6158C503.587 97.4802 514.429 111.698 515.592 103.848C516.755 95.9978 516.943 96.1213 515.592 87.1281C514.241 78.135 513.644 78.4153 512.786 75.1696C510.545 66.6923 512.168 69.9334 512.658 70.988C512.744 71.1718 512.876 71.325 513.047 71.4339C514.737 72.5097 524.133 78.6528 526.404 83.6583C528.902 89.1646 533.685 95.3591 533.685 103.848C533.685 111.792 531.684 115.717 531.427 116.189C531.409 116.221 531.39 116.25 531.368 116.28C531.026 116.751 528.066 120.932 528.902 123.693C529.306 125.027 530.805 126.722 531.265 127.22C531.354 127.316 531.425 127.426 531.472 127.547C531.788 128.352 533.063 131.646 533.685 133.903L535.309 143.194C535.322 143.271 535.326 143.349 535.322 143.427C534.696 154.205 535.962 161.757 533.685 171.07Z" fill="#7C2A33" fill-opacity="0.87" shape-rendering="crispEdges"/>
</g>
<defs>
<filter id="filter0_d_5_1621" x="0" y="0.41333" width="558" height="672.587" filterUnits="userSpaceOnUse" color-interpolation-filters="sRGB">
<feFlood flood-opacity="0" result="BackgroundImageFix"/>
<feColorMatrix in="SourceAlpha" type="matrix" values="0 0 0 0 0 0 0 0 0 0 0 0 0 0 0 0 0 0 127 0" result="hardAlpha"/>
<feOffset dx="10" dy="20"/>
<feGaussianBlur stdDeviation="5"/>
<feComposite in2="hardAlpha" operator="out"/>
<feColorMatrix type="matrix" values="0 0 0 0 0.266667 0 0 0 0 0.27451 0 0 0 0 0.329412 0 0 0 1 0"/>
<feBlend mode="normal" in2="BackgroundImageFix" result="effect1_dropShadow_5_1621"/>
<feBlend mode="normal" in="SourceGraphic" in2="effect1_dropShadow_5_1621" result="shape"/>
</filter>
</defs>
</svg>
